<svg width="24" height="24" viewBox="0 0 24 24" fill="none" xmlns="http://www.w3.org/2000/svg"><path d="M11.97 17.006a1.235 1.235 0 100-2.47 1.235 1.235 0 000 2.47zm.907-2.141l4.035-4.036M4.147 16.182h1.647m14 0h-1.647m1.071-3.376l-1.565.576m-2.718-4.858l-.576 1.564M11.97 7.947v1.647m-2.964-1.07l.576 1.564m-3.129.165l1.153 1.153m-2.882 1.4l1.564.576" stroke="#000" stroke-miterlimit="10" stroke-linecap="round" stroke-linejoin="round"/><path d="M11.97 6.3a9.42 9.42 0 00-9.47 9.47v3.707h18.941V15.77c0-5.271-4.2-9.47-9.47-9.47z" stroke="#000" stroke-miterlimit="10" stroke-linecap="round" stroke-linejoin="round"/></svg>